# xmcd CD database file
# Copyright (C) 1993-1998 Ti Kan
#
# Track frame offsets:
#	182
#	22320
#	34652
#	49392
#	63312
#	78022
#	94040
#	108447
#	125700
#	140270
#	163740
#	178105
#	192250
#	207422
#	222992
#	236280
#	252635
#	292062
#	305852
#	322120
#
# Disc length: 4481 seconds
#
# Revision: 1
# Processed by: cddbd v1.4b41PL1 Copyright (c) Steve Scherf et al.
# Submitted via: CDValet v3.31 - Copyright (c) 1997 Greg Leichner
#
DISCID=38117f14
DTITLE=Moments - Moments To Remember - Volume 1
DYEAR=1900
DGENRE=
TTITLE0=Not On The Outside
TTITLE1=Sunday
TTITLE2=I Do
TTITLE3=I'm So Lost
TTITLE4=Lovely Way She Loves
TTITLE5=Love On A Two Way Street
TTITLE6=If I Didn't Care
TTITLE7=All I Have
TTITLE8=I Can't Help It
TTITLE9=That's How It Feels
TTITLE10=Lucky Me
TTITLE11=To You With Love
TTITLE12=Thanks A Lot
TTITLE13=Just Because He Wants To Make Love (dosen't Mean He Lo
TTITLE13=ves You)
TTITLE14=My Thing
TTITLE15=Gotta Find A Way
TTITLE16=Sexy Mama
TTITLE17=Sho 'Nuff Boogie
TTITLE18=What's Your Name (The Moments With Sylvia)
TTITLE19=Girls
EXTD=
EXTT0=
EXTT1=
EXTT2=
EXTT3=
EXTT4=
EXTT5=
EXTT6=
EXTT7=
EXTT8=
EXTT9=
EXTT10=
EXTT11=
EXTT12=
EXTT13=
EXTT14=
EXTT15=
EXTT16=
EXTT17=
EXTT18=
EXTT19=
PLAYORDER=
